<?xml version="1.0" encoding="UTF-8" standalone="no"?>
<svg
   height="24px"
   viewBox="0 -960 960 960"
   width="24px"
   fill="#e8eaed"
   version="1.1"
   id="svg4"
   sodipodi:docname="add_friend.svg"
   inkscape:version="1.2.2 (b0a8486541, 2022-12-01)"
   xmlns:inkscape="http://www.inkscape.org/namespaces/inkscape"
   xmlns:sodipodi="http://sodipodi.sourceforge.net/DTD/sodipodi-0.dtd"
   xmlns="http://www.w3.org/2000/svg"
   xmlns:svg="http://www.w3.org/2000/svg">
  <defs
     id="defs8" />
  <sodipodi:namedview
     id="namedview6"
     pagecolor="#ffffff"
     bordercolor="#000000"
     borderopacity="0.25"
     inkscape:showpageshadow="2"
     inkscape:pageopacity="0.0"
     inkscape:pagecheckerboard="0"
     inkscape:deskcolor="#d1d1d1"
     showgrid="false"
     inkscape:zoom="36.583333"
     inkscape:cx="16.920273"
     inkscape:cy="16.838269"
     inkscape:window-width="1920"
     inkscape:window-height="1048"
     inkscape:window-x="0"
     inkscape:window-y="0"
     inkscape:window-maximized="1"
     inkscape:current-layer="svg4" />
  <path
     d="M500-482q29-32 44.5-73t15.5-85q0-44-15.5-85T500-798q60 8 100 53t40 105q0 60-40 105t-100 53Zm220 322v-120q0-36-16-68.5T662-406q51 18 94.5 46.5T800-280v120h-80Zm80-280v-80h-80v-80h80v-80h80v80h80v80h-80v80h-80Zm-480-40q-66 0-113-47t-47-113q0-66 47-113t113-47q66 0 113 47t47 113q0 66-47 113t-113 47ZM0-160v-112q0-34 17.5-62.5T64-378q62-31 126-46.5T320-440q66 0 130 15.5T576-378q29 15 46.5 43.5T640-272v112H0Zm320-400q33 0 56.5-23.5T400-640q0-33-23.5-56.5T320-720q-33 0-56.5 23.5T240-640q0 33 23.5 56.5T320-560ZM80-240h480v-32q0-11-5.5-20T540-306q-54-27-109-40.5T320-360q-56 0-111 13.5T100-306q-9 5-14.5 14T80-272v32Zm240-400Zm0 400Z"
     id="path2" />
  <text
     xml:space="preserve"
     style="font-size:93.3333px;fill:#000000;stroke-width:40"
     x="34.923546"
     y="-72.782822"
     id="text168"><tspan
       sodipodi:role="line"
       id="tspan166"
       style="font-weight:bold;font-size:93.3333px;stroke-width:40"
       x="34.923546"
       y="-72.782822">Freund einladen</tspan></text>
</svg>
